<svg xmlns="http://www.w3.org/2000/svg" viewBox="0 0 200 62.46"><defs><style>.cls-1,.cls-2,.cls-3{fill:#fff;}.cls-2,.cls-3{stroke:#000;stroke-miterlimit:10;}.cls-2{stroke-width:0.25px;}.cls-3{stroke-width:0.01px;}</style></defs><title>kaylalogo</title><g id="_1500_x_1500_px_Logo_2" data-name="1500 x 1500 px Logo 2"><g id="Background-5" data-name="Background"><polygon class="cls-1" points="60.87 33.69 67.94 40.61 53.79 40.61 53.79 26.77 58.95 26.77 59.83 28.27 60.72 26.77 67.94 26.77 60.87 33.69"/><path class="cls-1" d="M73.2,26.77V40.61h5.3V35.42H82v5.19h5.31V26.77ZM82,33.69H78.5V30.23H82Z"/><polygon class="cls-1" points="124.34 35.42 124.34 40.61 110.18 40.61 110.18 26.77 115.49 26.77 115.49 35.42 124.34 35.42"/><polygon class="cls-2" points="97.88 31.95 97.87 31.96 97.86 31.95 97.88 31.95"/><path class="cls-1" d="M129.63,26.77V40.61h5.31V35.42h3.54v5.19h5.31V26.77Zm8.85,6.92h-3.54V30.23h3.54Z"/><polygon class="cls-2" points="97.86 31.95 97.88 31.95 97.87 31.96 97.86 31.95"/><path class="cls-1" d="M101,26.77l-2.89,4.89L95.2,26.77H90.79v.15l4.23,7v6.7h5.75v-6.8l4.47-7ZM97.87,32h0Z"/><polygon class="cls-3" points="97.86 31.95 97.88 31.95 97.87 31.96 97.86 31.95"/><polygon class="cls-1" points="154.94 33.68 153.41 33.68 153.41 20.6 44.17 20.6 44.17 33.68 42.64 33.68 42.64 19.06 154.94 19.06 154.94 33.68"/></g></g></svg>