<svg xmlns="http://www.w3.org/2000/svg" viewBox="0 0 1500 1500"><defs><style>.cls-1{fill:#fff;}.cls-2,.cls-3{fill:none;stroke:#000;stroke-miterlimit:10;}.cls-2{stroke-width:0.25px;}.cls-3{stroke-width:0.01px;}</style></defs><title>Artboard 2</title><g id="_1500_x_1500_px_Logo_2" data-name="1500 x 1500 px Logo 2"><g id="Background-5" data-name="Background"><polygon class="cls-1" points="620.3 648.02 638.28 666.01 602.32 666.01 602.32 630.04 615.42 630.04 617.67 633.93 619.92 630.04 638.28 630.04 620.3 648.02"/><path class="cls-1" d="M651.63,630v36h13.48V652.52h9V666h13.49V630Zm22.47,18h-9v-9h9Z"/><polygon class="cls-1" points="781.56 652.52 781.56 666.01 745.6 666.01 745.6 630.04 759.08 630.04 759.08 652.52 781.56 652.52"/><polygon class="cls-2" points="714.35 643.5 714.33 643.53 714.3 643.5 714.35 643.5"/><path class="cls-1" d="M795,630v36h13.49V652.52h9V666H831V630Zm22.48,18h-9v-9h9Z"/><polygon class="cls-2" points="714.3 643.5 714.35 643.5 714.33 643.53 714.3 643.5"/><path class="cls-1" d="M722.19,630l-7.33,12.7L707.52,630h-11.2v.38l10.75,18.18V666h14.62V648.34L733.05,630Zm-7.86,13.49,0,0h.05Z"/><polygon class="cls-3" points="714.3 643.5 714.35 643.5 714.33 643.53 714.3 643.5"/><path class="cls-1" d="M863.22,641.13a1.49,1.49,0,0,1-1.5-1.47L861,601.9H572.35v37a1.5,1.5,0,0,1-3,0v-40H864l.77,40.7a1.51,1.51,0,0,1-1.47,1.53Z"/></g></g></svg>